<?xml version="1.0" encoding="UTF-8" standalone="no"?>
<!DOCTYPE svg PUBLIC "-//W3C//DTD SVG 1.1//EN" "http://www.w3.org/Graphics/SVG/1.1/DTD/svg11.dtd">
<svg width="100%" height="100%" viewBox="0 0 1635 316" version="1.1" xmlns="http://www.w3.org/2000/svg" xmlns:xlink="http://www.w3.org/1999/xlink" xml:space="preserve" xmlns:serif="http://www.serif.com/" style="fill-rule:evenodd;clip-rule:evenodd;stroke-linejoin:round;stroke-miterlimit:2;">
    <g id="Artboard1" transform="matrix(0.781676,0,0,0.227548,0,0)">
        <rect x="0" y="0" width="2090.68" height="1387.85" style="fill:none;"/>
        <g transform="matrix(1.2793,0,0,7.81277,-617.985,-2287.23)">
            <g>
                <g>
                    <g transform="matrix(2.13805,0,0,1.20265,-57604,-40366.3)">
                        <path d="M27368.6,33923L27368.6,33860.4L27391.7,33860.4C27396.7,33860.4 27400.9,33861.3 27404.2,33862.9C27407.4,33864.6 27409.9,33866.9 27411.5,33869.8C27413.1,33872.7 27413.9,33876 27413.9,33879.7C27413.9,33883.1 27413.1,33886.3 27411.6,33889.2C27410,33892.1 27407.6,33894.4 27404.3,33896.1C27401.1,33897.9 27396.9,33898.8 27391.7,33898.8L27380,33898.8L27380,33923L27368.6,33923ZM27380,33889.5L27391,33889.5C27395,33889.5 27397.9,33888.6 27399.6,33886.8C27401.4,33885.1 27402.3,33882.7 27402.3,33879.7C27402.3,33876.6 27401.4,33874.1 27399.6,33872.4C27397.9,33870.6 27395,33869.7 27391,33869.7L27380,33869.7L27380,33889.5Z" style="fill:rgb(46,66,36);fill-rule:nonzero;"/>
                        <path d="M27441.6,33924.1C27437.3,33924.1 27433.4,33923.1 27430,33921.1C27426.6,33919.1 27423.9,33916.4 27421.9,33912.9C27419.9,33909.5 27418.9,33905.4 27418.9,33900.8C27418.9,33896.2 27419.9,33892.2 27421.9,33888.7C27424,33885.2 27426.7,33882.5 27430.1,33880.6C27433.5,33878.6 27437.4,33877.6 27441.7,33877.6C27445.9,33877.6 27449.7,33878.6 27453.2,33880.6C27456.6,33882.5 27459.3,33885.2 27461.3,33888.7C27463.3,33892.2 27464.3,33896.2 27464.3,33900.8C27464.3,33905.4 27463.3,33909.5 27461.3,33912.9C27459.3,33916.4 27456.6,33919.1 27453.1,33921.1C27449.7,33923.1 27445.8,33924.1 27441.6,33924.1ZM27441.6,33914.1C27444.6,33914.1 27447.2,33913 27449.4,33910.8C27451.6,33908.6 27452.7,33905.2 27452.7,33900.8C27452.7,33896.4 27451.6,33893.1 27449.4,33890.9C27447.2,33888.6 27444.6,33887.5 27441.7,33887.5C27438.6,33887.5 27436,33888.6 27433.9,33890.9C27431.7,33893.1 27430.6,33896.4 27430.6,33900.8C27430.6,33905.2 27431.7,33908.6 27433.9,33910.8C27436,33913 27438.6,33914.1 27441.6,33914.1Z" style="fill:rgb(46,66,36);fill-rule:nonzero;"/>
                        <path d="M27492.8,33924.1C27488.9,33924.1 27485.4,33923.4 27482.4,33922.1C27479.4,33920.9 27477.1,33919.1 27475.3,33916.8C27473.5,33914.6 27472.4,33911.9 27472.1,33909L27483.6,33909C27483.9,33910.7 27484.9,33912.2 27486.5,33913.4C27488.1,33914.6 27490.1,33915.2 27492.6,33915.2C27495.1,33915.2 27496.9,33914.7 27498.1,33913.7C27499.3,33912.7 27499.8,33911.5 27499.8,33910.2C27499.8,33908.3 27499,33907 27497.3,33906.3C27495.7,33905.6 27493.4,33905 27490.4,33904.3C27488.5,33903.9 27486.5,33903.4 27484.6,33902.8C27482.6,33902.2 27480.8,33901.4 27479.2,33900.5C27477.5,33899.6 27476.2,33898.4 27475.2,33896.9C27474.2,33895.5 27473.7,33893.7 27473.7,33891.5C27473.7,33887.6 27475.2,33884.3 27478.4,33881.6C27481.5,33878.9 27485.9,33877.6 27491.5,33877.6C27496.8,33877.6 27501,33878.8 27504.1,33881.3C27507.2,33883.7 27509.1,33887.1 27509.7,33891.4L27498.9,33891.4C27498.2,33888.1 27495.7,33886.4 27491.5,33886.4C27489.3,33886.4 27487.7,33886.9 27486.5,33887.7C27485.3,33888.5 27484.7,33889.6 27484.7,33890.8C27484.7,33892.1 27485.6,33893.2 27487.3,33894C27489.1,33894.7 27491.4,33895.4 27494.2,33896.1C27497.3,33896.8 27500.2,33897.6 27502.8,33898.5C27505.3,33899.3 27507.4,33900.6 27509,33902.3C27510.5,33904 27511.3,33906.4 27511.3,33909.6C27511.3,33912.3 27510.6,33914.8 27509.1,33917C27507.7,33919.2 27505.5,33920.9 27502.7,33922.2C27499.9,33923.4 27496.6,33924.1 27492.8,33924.1Z" style="fill:rgb(46,66,36);fill-rule:nonzero;"/>
                        <path d="M27543.1,33924.1C27538.6,33924.1 27534.6,33923.1 27531.1,33921.1C27527.7,33919.1 27524.9,33916.4 27522.9,33912.9C27521,33909.4 27520,33905.4 27520,33900.8C27520,33896.3 27521,33892.3 27522.9,33888.8C27524.9,33885.3 27527.7,33882.5 27531.1,33880.6C27534.6,33878.6 27538.6,33877.6 27543.1,33877.6C27548.8,33877.6 27553.5,33879.1 27557.4,33882C27561.3,33885 27563.7,33889 27564.8,33894.2L27552.7,33894.2C27552.1,33892.1 27551,33890.4 27549.2,33889.2C27547.5,33888 27545.4,33887.3 27543,33887.3C27539.8,33887.3 27537.2,33888.5 27535,33890.9C27532.8,33893.3 27531.7,33896.6 27531.7,33900.8C27531.7,33905.1 27532.8,33908.4 27535,33910.8C27537.2,33913.1 27539.8,33914.3 27543,33914.3C27545.4,33914.3 27547.5,33913.7 27549.2,33912.5C27551,33911.3 27552.1,33909.6 27552.7,33907.4L27564.8,33907.4C27563.7,33912.4 27561.3,33916.5 27557.4,33919.5C27553.5,33922.5 27548.8,33924.1 27543.1,33924.1Z" style="fill:rgb(46,66,36);fill-rule:nonzero;"/>
                        <path d="M27575,33923L27575,33858.7L27586.4,33858.7L27586.4,33885.5C27587.9,33883 27589.9,33881.1 27592.5,33879.7C27595,33878.3 27597.9,33877.6 27601.2,33877.6C27606.7,33877.6 27610.9,33879.3 27613.9,33882.8C27616.9,33886.2 27618.4,33891.3 27618.4,33898L27618.4,33923L27607.1,33923L27607.1,33899C27607.1,33895.2 27606.3,33892.3 27604.8,33890.3C27603.3,33888.3 27600.9,33887.3 27597.6,33887.3C27594.4,33887.3 27591.7,33888.4 27589.6,33890.6C27587.5,33892.9 27586.4,33896.1 27586.4,33900.1L27586.4,33923L27575,33923Z" style="fill:rgb(46,66,36);fill-rule:nonzero;"/>
                        <path d="M27650.9,33923L27650.9,33860.4L27672.2,33860.4C27679.5,33860.4 27685.6,33861.7 27690.3,33864.3C27695,33866.9 27698.6,33870.6 27700.8,33875.2C27703.1,33879.9 27704.3,33885.4 27704.3,33891.7C27704.3,33898 27703.1,33903.5 27700.8,33908.2C27698.6,33912.9 27695,33916.5 27690.3,33919.1C27685.6,33921.7 27679.5,33923 27672.2,33923L27650.9,33923ZM27662.3,33913.2L27671.7,33913.2C27676.9,33913.2 27681.1,33912.3 27684.1,33910.6C27687.1,33908.9 27689.3,33906.5 27690.6,33903.3C27691.9,33900.1 27692.6,33896.2 27692.6,33891.7C27692.6,33887.3 27691.9,33883.4 27690.6,33880.2C27689.3,33877 27687.1,33874.5 27684.1,33872.8C27681.1,33871 27676.9,33870.2 27671.7,33870.2L27662.3,33870.2L27662.3,33913.2Z" style="fill:rgb(46,66,36);fill-rule:nonzero;"/>
                        <path d="M27735.6,33924.1C27731.2,33924.1 27727.2,33923.1 27723.8,33921.2C27720.3,33919.3 27717.6,33916.6 27715.6,33913.2C27713.7,33909.7 27712.7,33905.7 27712.7,33901.2C27712.7,33896.6 27713.7,33892.5 27715.6,33888.9C27717.5,33885.4 27720.2,33882.6 27723.6,33880.6C27727.1,33878.6 27731.1,33877.6 27735.7,33877.6C27740.1,33877.6 27743.9,33878.6 27747.3,33880.5C27750.6,33882.4 27753.2,33885 27755.1,33888.3C27757,33891.6 27757.9,33895.3 27757.9,33899.3L27757.9,33901.4C27757.8,33902.1 27757.8,33902.8 27757.7,33903.6L27724,33903.6C27724.3,33907.1 27725.5,33909.8 27727.6,33911.7C27729.8,33913.7 27732.5,33914.7 27735.6,33914.7C27737.9,33914.7 27739.8,33914.2 27741.4,33913.1C27743,33912.1 27744.2,33910.7 27744.9,33909.1L27756.6,33909.1C27755.7,33911.9 27754.3,33914.4 27752.4,33916.7C27750.5,33919 27748.1,33920.8 27745.3,33922.1C27742.4,33923.4 27739.2,33924.1 27735.6,33924.1ZM27735.7,33886.9C27732.9,33886.9 27730.5,33887.7 27728.3,33889.3C27726.2,33890.8 27724.8,33893.2 27724.2,33896.5L27746.3,33896.5C27746.1,33893.5 27745,33891.2 27743.1,33889.5C27741.1,33887.8 27738.7,33886.9 27735.7,33886.9Z" style="fill:rgb(46,66,36);fill-rule:nonzero;"/>
                        <path d="M27785.9,33924.1C27781.9,33924.1 27778.5,33923.4 27775.5,33922.1C27772.5,33920.9 27770.1,33919.1 27768.3,33916.8C27766.6,33914.6 27765.5,33911.9 27765.1,33909L27776.7,33909C27777,33910.7 27778,33912.2 27779.6,33913.4C27781.1,33914.6 27783.2,33915.2 27785.7,33915.2C27788.2,33915.2 27790,33914.7 27791.2,33913.7C27792.3,33912.7 27792.9,33911.5 27792.9,33910.2C27792.9,33908.3 27792.1,33907 27790.4,33906.3C27788.8,33905.6 27786.4,33905 27783.4,33904.3C27781.5,33903.9 27779.6,33903.4 27777.6,33902.8C27775.7,33902.2 27773.9,33901.4 27772.2,33900.5C27770.6,33899.6 27769.3,33898.4 27768.3,33896.9C27767.2,33895.5 27766.7,33893.7 27766.7,33891.5C27766.7,33887.6 27768.3,33884.3 27771.4,33881.6C27774.6,33878.9 27779,33877.6 27784.6,33877.6C27789.9,33877.6 27794,33878.8 27797.2,33881.3C27800.3,33883.7 27802.2,33887.1 27802.7,33891.4L27791.9,33891.4C27791.3,33888.1 27788.8,33886.4 27784.5,33886.4C27782.4,33886.4 27780.7,33886.9 27779.6,33887.7C27778.4,33888.5 27777.8,33889.6 27777.8,33890.8C27777.8,33892.1 27778.7,33893.2 27780.4,33894C27782.1,33894.7 27784.4,33895.4 27787.3,33896.1C27790.4,33896.8 27793.2,33897.6 27795.8,33898.5C27798.4,33899.3 27800.5,33900.6 27802,33902.3C27803.6,33904 27804.4,33906.4 27804.4,33909.6C27804.4,33912.3 27803.7,33914.8 27802.2,33917C27800.7,33919.2 27798.6,33920.9 27795.8,33922.2C27793,33923.4 27789.7,33924.1 27785.9,33924.1Z" style="fill:rgb(46,66,36);fill-rule:nonzero;"/>
                        <path d="M27820.6,33871.8C27818.5,33871.8 27816.8,33871.2 27815.5,33869.9C27814.1,33868.7 27813.5,33867.1 27813.5,33865.2C27813.5,33863.3 27814.1,33861.7 27815.5,33860.5C27816.8,33859.3 27818.5,33858.7 27820.6,33858.7C27822.7,33858.7 27824.4,33859.3 27825.8,33860.5C27827.1,33861.7 27827.8,33863.3 27827.8,33865.2C27827.8,33867.1 27827.1,33868.7 27825.8,33869.9C27824.4,33871.2 27822.7,33871.8 27820.6,33871.8ZM27814.9,33923L27814.9,33878.7L27826.3,33878.7L27826.3,33923L27814.9,33923Z" style="fill:rgb(46,66,36);fill-rule:nonzero;"/>
                        <path d="M27857.1,33909.8C27854.9,33909.8 27852.9,33909.5 27851.1,33909.1L27847.8,33912.4C27848.8,33912.9 27850.2,33913.3 27851.9,33913.7C27853.6,33914.1 27856.4,33914.4 27860.3,33914.8C27866.2,33915.3 27870.5,33916.7 27873.2,33919C27875.8,33921.2 27877.2,33924.4 27877.2,33928.4C27877.2,33931 27876.5,33933.5 27875,33935.8C27873.6,33938.2 27871.4,33940.1 27868.4,33941.5C27865.4,33943 27861.6,33943.7 27857,33943.7C27850.7,33943.7 27845.6,33942.5 27841.7,33940.2C27837.8,33937.8 27835.9,33934.3 27835.9,33929.6C27835.9,33925.6 27837.8,33922.2 27841.7,33919.2C27840.5,33918.7 27839.5,33918.1 27838.6,33917.5C27837.8,33916.9 27837,33916.3 27836.3,33915.7L27836.3,33913.6L27844.1,33905.4C27840.7,33902.4 27838.9,33898.4 27838.9,33893.7C27838.9,33890.7 27839.7,33888 27841.1,33885.6C27842.6,33883.1 27844.7,33881.2 27847.3,33879.7C27850,33878.3 27853.3,33877.6 27857.1,33877.6C27859.6,33877.6 27861.9,33878 27864,33878.7L27880.8,33878.7L27880.8,33885.6L27873.2,33886.2C27874.4,33888.4 27875,33890.9 27875,33893.7C27875,33896.7 27874.3,33899.4 27872.9,33901.8C27871.5,33904.3 27869.4,33906.2 27866.7,33907.6C27864,33909.1 27860.8,33909.8 27857.1,33909.8ZM27857.1,33901C27859.4,33901 27861.3,33900.4 27862.8,33899.1C27864.4,33897.9 27865.1,33896.1 27865.1,33893.8C27865.1,33891.4 27864.4,33889.7 27862.8,33888.4C27861.3,33887.2 27859.4,33886.5 27857.1,33886.5C27854.6,33886.5 27852.7,33887.2 27851.2,33888.4C27849.7,33889.7 27848.9,33891.4 27848.9,33893.8C27848.9,33896.1 27849.7,33897.9 27851.2,33899.1C27852.7,33900.4 27854.6,33901 27857.1,33901ZM27846.4,33928.4C27846.4,33930.6 27847.4,33932.3 27849.4,33933.4C27851.5,33934.5 27854,33935.1 27857,33935.1C27859.8,33935.1 27862.2,33934.5 27864,33933.3C27865.7,33932.2 27866.6,33930.6 27866.6,33928.6C27866.6,33927 27866.1,33925.7 27864.9,33924.6C27863.7,33923.5 27861.4,33922.9 27858,33922.6C27855.5,33922.5 27853.3,33922.2 27851.2,33921.8C27849.5,33922.8 27848.2,33923.8 27847.5,33925C27846.7,33926.1 27846.4,33927.2 27846.4,33928.4Z" style="fill:rgb(46,66,36);fill-rule:nonzero;"/>
                        <path d="M27889.2,33923L27889.2,33878.7L27899.2,33878.7L27900.1,33886.2C27901.5,33883.6 27903.5,33881.5 27906.1,33879.9C27908.7,33878.4 27911.7,33877.6 27915.2,33877.6C27920.7,33877.6 27925,33879.3 27928,33882.8C27931.1,33886.2 27932.6,33891.3 27932.6,33898L27932.6,33923L27921.1,33923L27921.1,33899C27921.1,33895.2 27920.4,33892.3 27918.8,33890.3C27917.3,33888.3 27914.9,33887.3 27911.6,33887.3C27908.4,33887.3 27905.7,33888.4 27903.7,33890.6C27901.6,33892.9 27900.6,33896.1 27900.6,33900.1L27900.6,33923L27889.2,33923Z" style="fill:rgb(46,66,36);fill-rule:nonzero;"/>
                    </g>
                    <g transform="matrix(1,0,0,0.5625,-5818.87,-997.86)">
                        <path d="M6459.97,2294.53L6302.12,2294.53L6302.12,2610.23L6459.97,2610.23C6523.12,2610.23 6560.75,2588.53 6583.48,2561.59C6617.41,2521.37 6617.83,2468.09 6617.83,2452.38C6617.83,2436.67 6617.41,2383.39 6583.48,2343.17C6560.75,2316.23 6523.12,2294.53 6459.97,2294.53ZM6529.77,2333.7C6540.27,2349.79 6545.3,2367.5 6545.3,2379.85C6545.3,2408.29 6527.93,2465.17 6459.97,2465.17L6327.71,2465.17L6327.71,2584.64L6459.97,2584.64C6512.88,2584.64 6544.88,2567.66 6563.92,2545.09C6592.65,2511.04 6592.24,2465.68 6592.24,2452.38C6592.24,2439.08 6592.65,2393.72 6563.92,2359.67C6555.38,2349.55 6544.24,2340.55 6529.77,2333.7ZM6459.97,2320.11C6501.02,2320.11 6519.71,2359.94 6519.71,2379.85C6519.71,2399.76 6507.55,2439.59 6459.97,2439.59L6327.71,2439.59L6327.71,2320.11L6459.97,2320.11Z" style="fill:rgb(46,66,36);"/>
                    </g>
                </g>
            </g>
        </g>
    </g>
</svg>
