<svg xmlns="http://www.w3.org/2000/svg" width="40" height="40" fill="none" viewBox="0 0 40 40">
  <mask id="a" width="40" height="40" x="0" y="0" maskUnits="userSpaceOnUse" style="mask-type:alpha">
    <path fill="#D9D9D9" d="M0 0h40v40H0z"/>
  </mask>
  <g mask="url(#a)">
    <path fill="#1C1B1F" d="M22.375 28.958a1.292 1.292 0 0 1-.396-1c.014-.389.146-.708.396-.958l5.667-5.667h-20c-.39 0-.716-.132-.98-.395a1.333 1.333 0 0 1-.395-.98c0-.417.132-.757.395-1.02a1.33 1.33 0 0 1 .98-.396h20l-5.709-5.667a1.27 1.27 0 0 1-.395-.979c.013-.375.159-.702.437-.979a1.34 1.34 0 0 1 .979-.417c.375 0 .702.139.979.417l8.042 8.041c.167.167.278.327.333.48.056.153.084.326.084.52 0 .167-.028.333-.084.5-.055.167-.166.32-.333.459l-8.042 8.041a1.338 1.338 0 0 1-.979.417 1.34 1.34 0 0 1-.979-.417Z"/>
  </g>
</svg>
