<svg xmlns="http://www.w3.org/2000/svg" width="18" height="18" fill="none" viewBox="0 0 18 18">
  <mask id="a" width="18" height="18" x="0" y="0" maskUnits="userSpaceOnUse" style="mask-type:alpha">
    <path fill="#D9D9D9" d="M0 0h18v18H0z"/>
  </mask>
  <g mask="url(#a)">
    <path fill="#6E5E00" d="M7.181 13.294a.852.852 0 0 1-.328-.066.963.963 0 0 1-.31-.216L3.376 9.844a.847.847 0 0 1-.253-.647.911.911 0 0 1 .272-.647.878.878 0 0 1 .647-.263c.256 0 .466.088.628.263l2.55 2.55 6.13-6.131a.808.808 0 0 1 .62-.263.866.866 0 0 1 .881.891.891.891 0 0 1-.244.628L7.82 13.012a.96.96 0 0 1-.31.216.854.854 0 0 1-.328.066Z"/>
  </g>
</svg>
